<mxfile host="65bd71144e">
    <diagram id="6zoZnF_TcswoG6ObT7nW" name="第 1 页">
        <mxGraphModel dx="698" dy="614" grid="1" gridSize="10" guides="1" tooltips="1" connect="1" arrows="1" fold="1" page="1" pageScale="1" pageWidth="827" pageHeight="1169" math="0" shadow="0">
            <root>
                <mxCell id="0"/>
                <mxCell id="1" parent="0"/>
                <mxCell id="44" value="" style="group" parent="1" vertex="1" connectable="0">
                    <mxGeometry x="280" y="150" width="190" height="290" as="geometry"/>
                </mxCell>
                <mxCell id="45" value="0 return thenable&lt;br&gt;1" style="rounded=0;whiteSpace=wrap;html=1;verticalAlign=top;fontSize=16;" parent="44" vertex="1">
                    <mxGeometry y="30" width="190" height="260" as="geometry"/>
                </mxCell>
                <mxCell id="46" value="微任务" style="text;html=1;align=center;verticalAlign=middle;resizable=0;points=[];autosize=1;strokeColor=none;fillColor=none;fontSize=20;" parent="44" vertex="1">
                    <mxGeometry x="55" width="80" height="30" as="geometry"/>
                </mxCell>
                <mxCell id="47" value="" style="group" parent="1" vertex="1" connectable="0">
                    <mxGeometry x="35" y="150" width="190" height="290" as="geometry"/>
                </mxCell>
                <mxCell id="48" value="" style="rounded=0;whiteSpace=wrap;html=1;verticalAlign=top;fontSize=16;" parent="47" vertex="1">
                    <mxGeometry y="30" width="190" height="260" as="geometry"/>
                </mxCell>
                <mxCell id="49" value="main script" style="text;html=1;align=center;verticalAlign=middle;resizable=0;points=[];autosize=1;strokeColor=none;fillColor=none;fontSize=20;" parent="47" vertex="1">
                    <mxGeometry x="40" width="110" height="30" as="geometry"/>
                </mxCell>
                <mxCell id="50" value="main script执行 -- 依次加入两个微任务" style="text;html=1;align=left;verticalAlign=middle;resizable=0;points=[];autosize=1;strokeColor=none;fillColor=none;fontSize=20;" parent="1" vertex="1">
                    <mxGeometry x="35" y="100" width="360" height="30" as="geometry"/>
                </mxCell>
                <mxCell id="51" value="" style="group" parent="1" vertex="1" connectable="0">
                    <mxGeometry x="285" y="585" width="190" height="290" as="geometry"/>
                </mxCell>
                <mxCell id="52" value="1&lt;br&gt;then(() =&amp;gt; resolve(4))" style="rounded=0;whiteSpace=wrap;html=1;verticalAlign=top;fontSize=16;" parent="51" vertex="1">
                    <mxGeometry y="30" width="190" height="260" as="geometry"/>
                </mxCell>
                <mxCell id="53" value="微任务" style="text;html=1;align=center;verticalAlign=middle;resizable=0;points=[];autosize=1;strokeColor=none;fillColor=none;fontSize=20;" parent="51" vertex="1">
                    <mxGeometry x="55" width="80" height="30" as="geometry"/>
                </mxCell>
                <mxCell id="54" value="" style="group" parent="1" vertex="1" connectable="0">
                    <mxGeometry x="40" y="585" width="190" height="290" as="geometry"/>
                </mxCell>
                <mxCell id="55" value="0" style="rounded=0;whiteSpace=wrap;html=1;verticalAlign=top;fontSize=16;" parent="54" vertex="1">
                    <mxGeometry y="30" width="190" height="260" as="geometry"/>
                </mxCell>
                <mxCell id="56" value="main script" style="text;html=1;align=center;verticalAlign=middle;resizable=0;points=[];autosize=1;strokeColor=none;fillColor=none;fontSize=20;" parent="54" vertex="1">
                    <mxGeometry x="40" width="110" height="30" as="geometry"/>
                </mxCell>
                <mxCell id="57" value="执行微任务 -- return thenable 的时候，resolve 的调用变成了&lt;br&gt;then() -&amp;gt; resolve()&lt;br&gt;会将 resolve() 中的微任务执行延迟到下一次微任务中" style="text;html=1;align=left;verticalAlign=middle;resizable=0;points=[];autosize=1;strokeColor=none;fillColor=none;fontSize=20;" parent="1" vertex="1">
                    <mxGeometry x="40" y="490" width="550" height="80" as="geometry"/>
                </mxCell>
                <mxCell id="58" value="" style="group" vertex="1" connectable="0" parent="1">
                    <mxGeometry x="285" y="1015" width="190" height="290" as="geometry"/>
                </mxCell>
                <mxCell id="59" value="then(() =&amp;gt; resolve(4))&lt;br&gt;2" style="rounded=0;whiteSpace=wrap;html=1;verticalAlign=top;fontSize=16;" vertex="1" parent="58">
                    <mxGeometry y="30" width="190" height="260" as="geometry"/>
                </mxCell>
                <mxCell id="60" value="微任务" style="text;html=1;align=center;verticalAlign=middle;resizable=0;points=[];autosize=1;strokeColor=none;fillColor=none;fontSize=20;" vertex="1" parent="58">
                    <mxGeometry x="55" width="80" height="30" as="geometry"/>
                </mxCell>
                <mxCell id="61" value="" style="group" vertex="1" connectable="0" parent="1">
                    <mxGeometry x="40" y="1015" width="190" height="290" as="geometry"/>
                </mxCell>
                <mxCell id="62" value="0&lt;br&gt;1" style="rounded=0;whiteSpace=wrap;html=1;verticalAlign=top;fontSize=16;" vertex="1" parent="61">
                    <mxGeometry y="30" width="190" height="260" as="geometry"/>
                </mxCell>
                <mxCell id="63" value="main script" style="text;html=1;align=center;verticalAlign=middle;resizable=0;points=[];autosize=1;strokeColor=none;fillColor=none;fontSize=20;" vertex="1" parent="61">
                    <mxGeometry x="40" width="110" height="30" as="geometry"/>
                </mxCell>
                <mxCell id="64" value="执行微任务 1，打印完 1 后，resolve(undefined)&lt;br&gt;将后面的 then 加入到微任务队列中" style="text;html=1;align=left;verticalAlign=middle;resizable=0;points=[];autosize=1;strokeColor=none;fillColor=none;fontSize=20;" vertex="1" parent="1">
                    <mxGeometry x="40" y="935" width="440" height="50" as="geometry"/>
                </mxCell>
                <mxCell id="65" value="" style="group" vertex="1" connectable="0" parent="1">
                    <mxGeometry x="285" y="1400" width="190" height="290" as="geometry"/>
                </mxCell>
                <mxCell id="66" value="2&lt;br&gt;4" style="rounded=0;whiteSpace=wrap;html=1;verticalAlign=top;fontSize=16;" vertex="1" parent="65">
                    <mxGeometry y="30" width="190" height="260" as="geometry"/>
                </mxCell>
                <mxCell id="67" value="微任务" style="text;html=1;align=center;verticalAlign=middle;resizable=0;points=[];autosize=1;strokeColor=none;fillColor=none;fontSize=20;" vertex="1" parent="65">
                    <mxGeometry x="55" width="80" height="30" as="geometry"/>
                </mxCell>
                <mxCell id="68" value="" style="group" vertex="1" connectable="0" parent="1">
                    <mxGeometry x="40" y="1400" width="190" height="290" as="geometry"/>
                </mxCell>
                <mxCell id="69" value="0&lt;br&gt;1" style="rounded=0;whiteSpace=wrap;html=1;verticalAlign=top;fontSize=16;" vertex="1" parent="68">
                    <mxGeometry y="30" width="190" height="260" as="geometry"/>
                </mxCell>
                <mxCell id="70" value="main script" style="text;html=1;align=center;verticalAlign=middle;resizable=0;points=[];autosize=1;strokeColor=none;fillColor=none;fontSize=20;" vertex="1" parent="68">
                    <mxGeometry x="40" width="110" height="30" as="geometry"/>
                </mxCell>
                <mxCell id="71" value="执行微任务 then(() =&amp;gt; resolve(4))，将 resolve(4) 添加到微任务队列" style="text;html=1;align=left;verticalAlign=middle;resizable=0;points=[];autosize=1;strokeColor=none;fillColor=none;fontSize=20;" vertex="1" parent="1">
                    <mxGeometry x="40" y="1350" width="610" height="30" as="geometry"/>
                </mxCell>
                <mxCell id="72" value="" style="group" vertex="1" connectable="0" parent="1">
                    <mxGeometry x="285" y="1780" width="190" height="290" as="geometry"/>
                </mxCell>
                <mxCell id="73" value="4&lt;br&gt;3" style="rounded=0;whiteSpace=wrap;html=1;verticalAlign=top;fontSize=16;" vertex="1" parent="72">
                    <mxGeometry y="30" width="190" height="260" as="geometry"/>
                </mxCell>
                <mxCell id="74" value="微任务" style="text;html=1;align=center;verticalAlign=middle;resizable=0;points=[];autosize=1;strokeColor=none;fillColor=none;fontSize=20;" vertex="1" parent="72">
                    <mxGeometry x="55" width="80" height="30" as="geometry"/>
                </mxCell>
                <mxCell id="75" value="" style="group" vertex="1" connectable="0" parent="1">
                    <mxGeometry x="40" y="1780" width="190" height="290" as="geometry"/>
                </mxCell>
                <mxCell id="76" value="0&lt;br&gt;1&lt;br&gt;2" style="rounded=0;whiteSpace=wrap;html=1;verticalAlign=top;fontSize=16;" vertex="1" parent="75">
                    <mxGeometry y="30" width="190" height="260" as="geometry"/>
                </mxCell>
                <mxCell id="77" value="main script" style="text;html=1;align=center;verticalAlign=middle;resizable=0;points=[];autosize=1;strokeColor=none;fillColor=none;fontSize=20;" vertex="1" parent="75">
                    <mxGeometry x="40" width="110" height="30" as="geometry"/>
                </mxCell>
                <mxCell id="78" value="执行微任务 2，之后的流程和直接 return 的时候一致" style="text;html=1;align=left;verticalAlign=middle;resizable=0;points=[];autosize=1;strokeColor=none;fillColor=none;fontSize=20;" vertex="1" parent="1">
                    <mxGeometry x="40" y="1730" width="480" height="30" as="geometry"/>
                </mxCell>
                <mxCell id="79" value="" style="group" vertex="1" connectable="0" parent="1">
                    <mxGeometry x="285" y="2080" width="190" height="290" as="geometry"/>
                </mxCell>
                <mxCell id="80" value="3&lt;br&gt;5" style="rounded=0;whiteSpace=wrap;html=1;verticalAlign=top;fontSize=16;" vertex="1" parent="79">
                    <mxGeometry y="30" width="190" height="260" as="geometry"/>
                </mxCell>
                <mxCell id="81" value="微任务" style="text;html=1;align=center;verticalAlign=middle;resizable=0;points=[];autosize=1;strokeColor=none;fillColor=none;fontSize=20;" vertex="1" parent="79">
                    <mxGeometry x="55" width="80" height="30" as="geometry"/>
                </mxCell>
                <mxCell id="82" value="" style="group" vertex="1" connectable="0" parent="1">
                    <mxGeometry x="40" y="2080" width="190" height="290" as="geometry"/>
                </mxCell>
                <mxCell id="83" value="0&lt;br&gt;1&lt;br&gt;2&lt;br&gt;4" style="rounded=0;whiteSpace=wrap;html=1;verticalAlign=top;fontSize=16;" vertex="1" parent="82">
                    <mxGeometry y="30" width="190" height="260" as="geometry"/>
                </mxCell>
                <mxCell id="84" value="main script" style="text;html=1;align=center;verticalAlign=middle;resizable=0;points=[];autosize=1;strokeColor=none;fillColor=none;fontSize=20;" vertex="1" parent="82">
                    <mxGeometry x="40" width="110" height="30" as="geometry"/>
                </mxCell>
                <mxCell id="85" value="" style="group" vertex="1" connectable="0" parent="1">
                    <mxGeometry x="285" y="2380" width="190" height="290" as="geometry"/>
                </mxCell>
                <mxCell id="86" value="5&lt;br&gt;6" style="rounded=0;whiteSpace=wrap;html=1;verticalAlign=top;fontSize=16;" vertex="1" parent="85">
                    <mxGeometry y="30" width="190" height="260" as="geometry"/>
                </mxCell>
                <mxCell id="87" value="微任务" style="text;html=1;align=center;verticalAlign=middle;resizable=0;points=[];autosize=1;strokeColor=none;fillColor=none;fontSize=20;" vertex="1" parent="85">
                    <mxGeometry x="55" width="80" height="30" as="geometry"/>
                </mxCell>
                <mxCell id="88" value="" style="group" vertex="1" connectable="0" parent="1">
                    <mxGeometry x="40" y="2380" width="190" height="290" as="geometry"/>
                </mxCell>
                <mxCell id="89" value="0&lt;br&gt;1&lt;br&gt;2&lt;br&gt;4&lt;br&gt;3" style="rounded=0;whiteSpace=wrap;html=1;verticalAlign=top;fontSize=16;" vertex="1" parent="88">
                    <mxGeometry y="30" width="190" height="260" as="geometry"/>
                </mxCell>
                <mxCell id="90" value="main script" style="text;html=1;align=center;verticalAlign=middle;resizable=0;points=[];autosize=1;strokeColor=none;fillColor=none;fontSize=20;" vertex="1" parent="88">
                    <mxGeometry x="40" width="110" height="30" as="geometry"/>
                </mxCell>
                <mxCell id="91" value="" style="group" vertex="1" connectable="0" parent="1">
                    <mxGeometry x="285" y="2690" width="190" height="290" as="geometry"/>
                </mxCell>
                <mxCell id="92" value="6" style="rounded=0;whiteSpace=wrap;html=1;verticalAlign=top;fontSize=16;" vertex="1" parent="91">
                    <mxGeometry y="30" width="190" height="260" as="geometry"/>
                </mxCell>
                <mxCell id="93" value="微任务" style="text;html=1;align=center;verticalAlign=middle;resizable=0;points=[];autosize=1;strokeColor=none;fillColor=none;fontSize=20;" vertex="1" parent="91">
                    <mxGeometry x="55" width="80" height="30" as="geometry"/>
                </mxCell>
                <mxCell id="94" value="" style="group" vertex="1" connectable="0" parent="1">
                    <mxGeometry x="40" y="2690" width="190" height="290" as="geometry"/>
                </mxCell>
                <mxCell id="95" value="0&lt;br&gt;1&lt;br&gt;2&lt;br&gt;4&lt;br&gt;3&lt;br&gt;5" style="rounded=0;whiteSpace=wrap;html=1;verticalAlign=top;fontSize=16;" vertex="1" parent="94">
                    <mxGeometry y="30" width="190" height="260" as="geometry"/>
                </mxCell>
                <mxCell id="96" value="main script" style="text;html=1;align=center;verticalAlign=middle;resizable=0;points=[];autosize=1;strokeColor=none;fillColor=none;fontSize=20;" vertex="1" parent="94">
                    <mxGeometry x="40" width="110" height="30" as="geometry"/>
                </mxCell>
                <mxCell id="97" value="" style="group" vertex="1" connectable="0" parent="1">
                    <mxGeometry x="285" y="3000" width="190" height="290" as="geometry"/>
                </mxCell>
                <mxCell id="98" value="" style="rounded=0;whiteSpace=wrap;html=1;verticalAlign=top;fontSize=16;" vertex="1" parent="97">
                    <mxGeometry y="30" width="190" height="260" as="geometry"/>
                </mxCell>
                <mxCell id="99" value="微任务" style="text;html=1;align=center;verticalAlign=middle;resizable=0;points=[];autosize=1;strokeColor=none;fillColor=none;fontSize=20;" vertex="1" parent="97">
                    <mxGeometry x="55" width="80" height="30" as="geometry"/>
                </mxCell>
                <mxCell id="100" value="" style="group" vertex="1" connectable="0" parent="1">
                    <mxGeometry x="40" y="3000" width="190" height="290" as="geometry"/>
                </mxCell>
                <mxCell id="101" value="0&lt;br&gt;1&lt;br&gt;2&lt;br&gt;4&lt;br&gt;3&lt;br&gt;5&lt;br&gt;6" style="rounded=0;whiteSpace=wrap;html=1;verticalAlign=top;fontSize=16;" vertex="1" parent="100">
                    <mxGeometry y="30" width="190" height="260" as="geometry"/>
                </mxCell>
                <mxCell id="102" value="main script" style="text;html=1;align=center;verticalAlign=middle;resizable=0;points=[];autosize=1;strokeColor=none;fillColor=none;fontSize=20;" vertex="1" parent="100">
                    <mxGeometry x="40" width="110" height="30" as="geometry"/>
                </mxCell>
            </root>
        </mxGraphModel>
    </diagram>
</mxfile>
